<?xml version="1.0" encoding="UTF-8" standalone="no"?>
<svg width="82px" height="122px" viewBox="0 0 82 122" version="1.1" xmlns="http://www.w3.org/2000/svg" xmlns:xlink="http://www.w3.org/1999/xlink" xmlns:sketch="http://www.bohemiancoding.com/sketch/ns">
    <!-- Generator: Sketch 3.0.4 (8053) - http://www.bohemiancoding.com/sketch -->
    <title>wb-logo</title>
    <desc>Created with Sketch.</desc>
    <defs>
        <path id="path-1" d="M76.5629858,0 L0.26443219,0 L38.8261443,59.8695587 L76.5629858,0.00313059813"></path>
        <path id="path-3" d="M37.8038902,0 L0.0650752892,0 L0.0650752892,59.8695587 L37.8038902,2.11795738e-14"></path>
    </defs>
    <g id="Page-2" stroke="none" stroke-width="1" fill="none" fill-rule="evenodd" sketch:type="MSPage">
        <g id="wb-logo" sketch:type="MSArtboardGroup">
            <g id="diamond-2" sketch:type="MSLayerGroup" transform="translate(2.500000, 1.000000)">
                <path d="M76.5649592,59.9712836 L38.8261443,119.840842 L0.262458815,59.9712836 L38.8261443,0.101724897 L76.5649592,59.9712836" id="Fill-1" fill="#F1BB2A" sketch:type="MSShapeGroup"></path>
                <path d="M76.5649592,59.9712836 L76.5629858,59.975258 L38.8261443,119.840842 L76.5649592,59.9712836 M38.8261443,0.101724897 L38.8261443,59.9712836 L76.5649592,59.9712836 L38.8261443,0.101724897" id="Fill-2" fill="#B98D33" sketch:type="MSShapeGroup"></path>
                <g id="Group-5" transform="translate(0.000000, 59.971284)">
                    <mask id="mask-2" sketch:name="Clip 4" fill="white">
                        <use xlink:href="#path-1"></use>
                    </mask>
                    <g id="Clip-4"></g>
                    <path d="M38.8261443,0 L0.26443219,0 L38.8261443,59.8695587 L38.8261443,0" id="Fill-3" fill="#DDA72E" sketch:type="MSShapeGroup" mask="url(#mask-2)"></path>
                </g>
                <g id="Group-9" transform="translate(38.761069, 59.971284)">
                    <mask id="mask-4" sketch:name="Clip 7" fill="white">
                        <use xlink:href="#path-3"></use>
                    </mask>
                    <g id="Clip-7"></g>
                    <path d="M37.8038902,0 L0.0650752892,0 L37.8019168,0 L37.8019168,0.0039743467 L37.8038902,0" id="Fill-6" fill="#98712E" sketch:type="MSShapeGroup" mask="url(#mask-4)"></path>
                    <path d="M37.8019168,0 L0.0650752892,0 L0.0650752892,59.8695587 L37.8019168,0.0039743467 L17.8259036,4.18044393" id="Fill-8" fill="#9D752E" sketch:type="MSShapeGroup" mask="url(#mask-4)"></path>
                </g>
                <path d="M26.9918171,71.2604154 L29.9656926,65.9427395 C30.2538052,65.5055614 30.9089656,65.1419087 31.5601792,65.5055614 C32.9375946,66.3063923 34.8971556,66.8906212 36.4186273,66.8906212 C37.7250013,66.8906212 38.2321586,66.2328669 38.2321586,65.5790868 C38.2321586,64.6331923 37.4349152,63.9794123 35.331298,62.7394161 C31.4161229,60.4084618 29.093461,57.9324438 29.093461,54.3634804 C29.093461,49.1928554 33.1566392,44.6779975 40.6258619,44.6779975 C44.9041379,44.6779975 48.5312003,46.3531846 49.6205031,47.0804901 C50.125687,47.44613 50.1967285,48.0283718 49.7665328,48.7556772 L46.9367137,53.854764 C46.6466276,54.289955 46.0684289,54.5105313 45.5592983,54.289955 C44.4719689,53.7812386 42.6564643,52.9804078 40.4107641,52.9804078 C39.3254081,52.9804078 38.8162774,53.4175859 38.8162774,53.9998277 C38.8162774,54.874184 39.6845622,55.4564258 41.0659244,56.2552695 C45.4902302,58.8068 48.7522183,61.064229 48.7522183,65.2889595 C48.7522183,71.18689 44.5449837,75.2645697 36.0614465,75.2645697 C31.7831705,75.2645697 28.3731793,73.7364334 27.2838765,72.7865646 C26.8457874,72.3533608 26.5557013,71.9141955 26.9918171,71.2604154" id="Fill-10" fill="#FFFFFF" sketch:type="MSShapeGroup"></path>
            </g>
        </g>
    </g>
</svg>